<?xml version="1.0" encoding="iso-8859-1"?>
<!-- Uploaded to: SVG Repo, www.svgrepo.com, Generator: SVG Repo Mixer Tools -->
<svg fill="#000000" height="800px" width="800px" version="1.1" id="Layer_1" xmlns="http://www.w3.org/2000/svg" xmlns:xlink="http://www.w3.org/1999/xlink" 
	 viewBox="0 0 512 512" xml:space="preserve">
<g>
	<g>
		<path d="M501.801,37.227H10.199C4.567,37.227,0,41.793,0,47.426v417.147c0,5.633,4.567,10.199,10.199,10.199h491.602
			c5.632,0,10.199-4.566,10.199-10.199V47.426C512,41.793,507.433,37.227,501.801,37.227z M491.602,454.375H20.398V405.9h471.203
			V454.375z M491.602,385.501H20.398v-13.74h233.326c5.632,0,10.199-4.566,10.199-10.199s-4.567-10.199-10.199-10.199H20.398
			v-14.849h471.203V385.501z M491.602,316.115H20.398V57.625h471.203V316.115z"/>
	</g>
</g>
<g>
	<g>
		<path d="M302.656,351.363h-9.104c-5.632,0-10.199,4.566-10.199,10.199s4.567,10.199,10.199,10.199h9.104
			c5.632,0,10.199-4.566,10.199-10.199S308.289,351.363,302.656,351.363z"/>
	</g>
</g>
<g>
	<g>
		<path d="M445.027,244.271H311.004c-5.632,0-10.199,4.566-10.199,10.199c0,5.633,4.567,10.199,10.199,10.199h134.023
			c5.632,0,10.199-4.566,10.199-10.199C455.226,248.837,450.659,244.271,445.027,244.271z"/>
	</g>
</g>
<g>
	<g>
		<path d="M445.027,178.783H311.004c-5.632,0-10.199,4.566-10.199,10.199s4.567,10.199,10.199,10.199h134.023
			c5.632,0,10.199-4.566,10.199-10.199S450.659,178.783,445.027,178.783z"/>
	</g>
</g>
<g>
	<g>
		<path d="M445.578,113.294H311.004c-5.632,0-10.199,4.566-10.199,10.199c0,5.633,4.567,10.199,10.199,10.199h134.573
			c5.632,0,10.199-4.566,10.199-10.199C455.777,117.86,451.21,113.294,445.578,113.294z"/>
	</g>
</g>
<g>
	<g>
		<path d="M160.989,196.924c-56.43,0-102.34,37.712-102.34,84.064c0,5.633,4.567,10.199,10.199,10.199h184.282
			c5.632,0,10.199-4.566,10.199-10.199C263.33,234.635,217.42,196.924,160.989,196.924z M80.098,270.79L80.098,270.79
			c5.726-27.511,34.223-49.17,69.93-52.895v22.735c0,5.633,4.567,10.199,10.199,10.199c5.632,0,10.199-4.566,10.199-10.199v-22.871
			c36.415,3.262,65.647,25.131,71.454,53.031H80.098z"/>
	</g>
</g>
<g>
	<g>
		<path d="M160.128,80.942c-29.244,0-53.036,23.792-53.036,53.036c0,29.244,23.792,53.036,53.036,53.036
			s53.036-23.792,53.036-53.036C213.163,104.734,189.372,80.942,160.128,80.942z M160.128,166.615
			c-17.997,0-32.637-14.641-32.637-32.637c0-17.996,14.641-32.637,32.637-32.637s32.637,14.641,32.637,32.637
			C192.765,151.974,178.124,166.615,160.128,166.615z"/>
	</g>
</g>
</svg>