<svg xmlns="http://www.w3.org/2000/svg" viewBox="0 0 536.79 146.17"><defs><style>.cls-1{fill:#4ebfa2;}.cls-2{fill:#4fbfa3;}.cls-3{font-size:65px;fill:#094063;font-family:Baloo;}.cls-4{letter-spacing:-0.02em;}.cls-5{letter-spacing:-0.02em;}.cls-6{letter-spacing:0em;}.cls-7{letter-spacing:-0.02em;}</style></defs><title>Freelancer Hub</title><g id="Layer_2" data-name="Layer 2"><g id="Layer_1-2" data-name="Layer 1"><path class="cls-1" d="M144.13,18c-.19,0-10,0-25.77,7.74l-2.69,1.36c-3.15,1.66-6.52,3.63-10.06,5.95-.58.37-2.29,1.37-3.22,2.12,8.3,8,13.24,13.43,16.57,17.29s5.32,6.55,8,9.62C150.78,89,196.17,53.75,144.13,18Z"/><path class="cls-2" d="M105.64,33.09c3.55-2.33,6.91-4.29,10.06-6l2.69-1.36h-.24l.25-.06C134.1,18,143.93,18,144.17,18c-.07-.35-.94-.41-4.5-2.85a53.14,53.14,0,0,0-6.44-3.88C129.56,8.79,121,5.84,121,5.84h-.09A118.76,118.76,0,0,0,87.48,0,103.39,103.39,0,0,0,66.35,2.34l-.52.11c-8.95,1.9-20.3,7.81-20.3,7.81A103.8,103.8,0,0,0,28.44,21l-.24.2C26.27,22.79,13.27,33.59,4.64,48.34v.06a16.71,16.71,0,0,0-1.23,2.28h.11c-.12.26-.26.5-.38.77s-.31.65-.45,1A32.42,32.42,0,0,0,0,65.44C0,84.13,16.26,98.82,36,98.82c26.06,0,33.13-25.2,48.92-46.33a72,72,0,0,1,18.87-18.16.65.65,0,0,1,.16-.09Z"/><text class="cls-3" transform="translate(89.21 112.11)"><tspan class="cls-4">F</tspan><tspan class="cls-5" x="33.22" y="0">r</tspan><tspan class="cls-6" x="58.69" y="0">eelan</tspan><tspan class="cls-7" x="221.52" y="0">c</tspan><tspan x="252.33" y="0">er Hub</tspan></text></g></g></svg>