
<svg xmlns="http://www.w3.org/2000/svg" width="48" height="48" viewBox="0 0 50 50">
  <svg xmlns="http://www.w3.org/2000/svg" viewBox="0 0 50 50">
    <circle cx="25" cy="25" r="25" fill="#FFF" stroke="#EDEDED"/>
      <path fill="#FBBB00" d="M15.613 28.821l-1.2 4.485-4.392.093a17.18 17.18 0 0 1-2.056-8.178c0-2.861.696-5.56 1.93-7.936l3.91.717 1.712 3.885a10.258 10.258 0 0 0-.554 3.334c0 1.267.23 2.48.65 3.6z"/>
      <path fill="#518EF8" d="M42.176 21.997a17.32 17.32 0 0 1-.075 6.827 17.253 17.253 0 0 1-6.076 9.855l-.001-.001-4.924-.252-.697-4.35a10.285 10.285 0 0 0 4.425-5.252h-9.227v-6.827h16.575z"/>
      <path fill="#28B446" d="M36.024 38.678a17.184 17.184 0 0 1-10.803 3.8c-6.572 0-12.285-3.673-15.2-9.079l5.592-4.578a10.26 10.26 0 0 0 9.608 6.659c1.89 0 3.662-.512 5.182-1.404l5.62 4.602z"/>
      <path fill="#F14336" d="M36.236 11.937l-5.59 4.577a10.2 10.2 0 0 0-5.425-1.551c-4.498 0-8.32 2.896-9.704 6.924l-5.622-4.602c2.871-5.537 8.657-9.32 15.326-9.32 4.187 0 8.026 1.491 11.015 3.972z"/>
</svg>
</svg>
